<svg width="8" height="8" viewBox="0 0 8 8" fill="none" xmlns="http://www.w3.org/2000/svg">
<path d="M5.83336 0.638672C5.45801 0.64451 5.09085 0.74929 4.76895 0.942429C4.44705 1.13557 4.18181 1.41023 4.00003 1.73867C3.81824 1.41023 3.553 1.13557 3.23111 0.942429C2.90921 0.74929 2.54204 0.64451 2.16669 0.638672C1.56834 0.664669 1.0046 0.926423 0.598621 1.36675C0.192647 1.80708 -0.0225567 2.39018 2.6787e-05 2.98867C2.6787e-05 4.50434 1.59536 6.15967 2.93336 7.282C3.2321 7.53305 3.60981 7.67068 4.00003 7.67068C4.39024 7.67068 4.76795 7.53305 5.06669 7.282C6.40469 6.15967 8.00003 4.50434 8.00003 2.98867C8.02261 2.39018 7.80741 1.80708 7.40143 1.36675C6.99546 0.926423 6.43171 0.664669 5.83336 0.638672Z" fill="#E45E41"/>
</svg>
