<svg width="15" height="15" viewBox="0 0 15 15" fill="none" xmlns="http://www.w3.org/2000/svg">
<path d="M14.9281 10.1237L13.2232 4.26906C12.8591 3.01667 12.0658 1.91629 10.9696 1.14305C9.87335 0.369804 8.53714 -0.0318615 7.17363 0.00197552C5.81012 0.0358125 4.49767 0.503208 3.44516 1.32977C2.39265 2.15634 1.66057 3.29457 1.36542 4.56332L0.0467301 10.2174C-0.0170782 10.4914 -0.0155218 10.7754 0.0512845 11.0487C0.118091 11.322 0.248442 11.5775 0.432722 11.7963C0.617001 12.0152 0.850506 12.1919 1.11601 12.3133C1.38151 12.4347 1.67224 12.4977 1.96674 12.4978H4.332C4.4825 13.204 4.88461 13.8389 5.47019 14.2949C6.05578 14.7509 6.78882 15 7.54512 15C8.30143 15 9.03447 14.7509 9.62006 14.2949C10.2056 13.8389 10.6078 13.204 10.7583 12.4978H13.0337C13.3367 12.4977 13.6356 12.4309 13.907 12.3026C14.1785 12.1742 14.4152 11.9879 14.5986 11.7581C14.782 11.5283 14.9073 11.2613 14.9645 10.9778C15.0218 10.6942 15.0089 10.402 14.9281 10.1237ZM7.54512 13.7473C7.13971 13.7457 6.74471 13.6248 6.41417 13.4012C6.08363 13.1775 5.8337 12.862 5.69856 12.4978H9.39169C9.25655 12.862 9.00662 13.1775 8.67608 13.4012C8.34554 13.6248 7.95054 13.7457 7.54512 13.7473ZM13.555 11.0015C13.4938 11.0788 13.4145 11.1413 13.3234 11.1842C13.2323 11.227 13.132 11.249 13.0304 11.2483H1.96674C1.86855 11.2483 1.77162 11.2272 1.6831 11.1868C1.59458 11.1463 1.51673 11.0874 1.4553 11.0144C1.39387 10.9414 1.35042 10.8562 1.32817 10.7651C1.30592 10.674 1.30543 10.5793 1.32674 10.488L2.64543 4.83384C2.87779 3.8381 3.45285 2.94494 4.27918 2.29633C5.10551 1.64773 6.13569 1.28092 7.20596 1.25421C8.27623 1.22749 9.32515 1.54241 10.186 2.1489C11.0468 2.75539 11.6702 3.61864 11.9569 4.60143L13.6619 10.4561C13.6897 10.5487 13.6945 10.6461 13.676 10.7408C13.6574 10.8355 13.616 10.9247 13.555 11.0015Z" fill="#8F8F8F"/>
</svg>
