<svg width="15" height="15" viewBox="0 0 15 15" fill="none" xmlns="http://www.w3.org/2000/svg">
<g clip-path="url(#clip0_266_1119)">
<path d="M0 14.3747H15V14.9997H0V14.3747ZM15 4.71594V5.62469H13.125V11.8747H14.375V12.4997H0.625V11.8747H1.875V5.62469H0V4.71594C0 4.00032 0.3975 3.35782 1.03688 3.03844L6.73438 0.192191C7.21062 -0.0671841 7.78875 -0.0678091 8.275 0.197191L13.9631 3.03782C14.6025 3.35719 15 4.00094 15 4.71594ZM2.5 11.8747H5V5.62469H2.5V11.8747ZM9.375 5.62469H5.625V11.8747H9.375V5.62469ZM12.5 5.62469H10V11.8747H12.5V5.62469ZM14.375 4.71594C14.375 4.23907 14.11 3.81032 13.6837 3.59719L7.98563 0.751566C7.67813 0.583441 7.32125 0.583441 7.02375 0.746566L1.31625 3.59719C0.889375 3.81032 0.625 4.23844 0.625 4.71594V4.99969H14.375V4.71594Z" fill="black"/>
</g>
<defs>
<clipPath id="clip0_266_1119">
<rect width="15" height="15" fill="white"/>
</clipPath>
</defs>
</svg>
