<svg width="12" height="13" viewBox="0 0 12 13" fill="none" xmlns="http://www.w3.org/2000/svg">
<g clip-path="url(#clip0_411_1585)">
<path d="M10.5 2.16667H8.95C8.83395 1.55535 8.52691 1.00606 8.08062 0.611389C7.63434 0.216715 7.0761 0.000787867 6.5 0L5.5 0C4.9239 0.000787867 4.36566 0.216715 3.91937 0.611389C3.47309 1.00606 3.16605 1.55535 3.05 2.16667H1.5C1.36739 2.16667 1.24021 2.22374 1.14645 2.32532C1.05268 2.4269 1 2.56467 1 2.70833C1 2.85199 1.05268 2.98977 1.14645 3.09135C1.24021 3.19293 1.36739 3.25 1.5 3.25H2V10.2917C2.00079 11.0097 2.26444 11.6981 2.73311 12.2058C3.20178 12.7135 3.8372 12.9991 4.5 13H7.5C8.1628 12.9991 8.79822 12.7135 9.26689 12.2058C9.73556 11.6981 9.9992 11.0097 10 10.2917V3.25H10.5C10.6326 3.25 10.7598 3.19293 10.8536 3.09135C10.9473 2.98977 11 2.85199 11 2.70833C11 2.56467 10.9473 2.4269 10.8536 2.32532C10.7598 2.22374 10.6326 2.16667 10.5 2.16667ZM5.5 1.08333H6.5C6.81014 1.08374 7.11256 1.18808 7.36581 1.38203C7.61905 1.57598 7.81071 1.85006 7.9145 2.16667H4.0855C4.18929 1.85006 4.38095 1.57598 4.63419 1.38203C4.88744 1.18808 5.18986 1.08374 5.5 1.08333ZM9 10.2917C9 10.7226 8.84196 11.136 8.56066 11.4407C8.27936 11.7455 7.89782 11.9167 7.5 11.9167H4.5C4.10217 11.9167 3.72064 11.7455 3.43934 11.4407C3.15804 11.136 3 10.7226 3 10.2917V3.25H9V10.2917Z" fill="#DA2F2F"/>
<path d="M5 9.75033C5.13261 9.75033 5.25979 9.69326 5.35355 9.59168C5.44732 9.49009 5.5 9.35232 5.5 9.20866V5.95866C5.5 5.815 5.44732 5.67722 5.35355 5.57564C5.25979 5.47406 5.13261 5.41699 5 5.41699C4.86739 5.41699 4.74021 5.47406 4.64645 5.57564C4.55268 5.67722 4.5 5.815 4.5 5.95866V9.20866C4.5 9.35232 4.55268 9.49009 4.64645 9.59168C4.74021 9.69326 4.86739 9.75033 5 9.75033Z" fill="#DA2F2F"/>
<path d="M7 9.75033C7.13261 9.75033 7.25979 9.69326 7.35355 9.59168C7.44732 9.49009 7.5 9.35232 7.5 9.20866V5.95866C7.5 5.815 7.44732 5.67722 7.35355 5.57564C7.25979 5.47406 7.13261 5.41699 7 5.41699C6.86739 5.41699 6.74021 5.47406 6.64645 5.57564C6.55268 5.67722 6.5 5.815 6.5 5.95866V9.20866C6.5 9.35232 6.55268 9.49009 6.64645 9.59168C6.74021 9.69326 6.86739 9.75033 7 9.75033Z" fill="#DA2F2F"/>
</g>
<defs>
<clipPath id="clip0_411_1585">
<rect width="12" height="13" fill="white"/>
</clipPath>
</defs>
</svg>
