<svg width="9" height="9" viewBox="0 0 9 9" fill="none" xmlns="http://www.w3.org/2000/svg">
<path d="M8.625 3.36713C8.52554 3.36713 8.43016 3.40663 8.35984 3.47696C8.28951 3.54729 8.25 3.64267 8.25 3.74213V5.625H6.75C6.45163 5.625 6.16548 5.74353 5.9545 5.9545C5.74353 6.16548 5.625 6.45163 5.625 6.75V8.25H1.875C1.57663 8.25 1.29048 8.13147 1.0795 7.9205C0.868527 7.70952 0.75 7.42337 0.75 7.125V1.875C0.75 1.57663 0.868527 1.29048 1.0795 1.0795C1.29048 0.868527 1.57663 0.75 1.875 0.75H5.26575C5.36521 0.75 5.46059 0.710491 5.53092 0.640165C5.60124 0.569839 5.64075 0.474456 5.64075 0.375C5.64075 0.275544 5.60124 0.180161 5.53092 0.109835C5.46059 0.0395088 5.36521 0 5.26575 0L1.875 0C1.3779 0.000595447 0.901334 0.198331 0.549833 0.549833C0.198331 0.901334 0.000595447 1.3779 0 1.875L0 7.125C0.000595447 7.6221 0.198331 8.09867 0.549833 8.45017C0.901334 8.80167 1.3779 8.9994 1.875 9H6.12863C6.37497 9.0007 6.619 8.95255 6.84661 8.85831C7.07422 8.76407 7.28088 8.62563 7.45463 8.451L8.45063 7.45425C8.62528 7.28058 8.76377 7.07399 8.85806 6.84645C8.95236 6.61891 9.00061 6.37493 9 6.12863V3.74213C9 3.64267 8.96049 3.54729 8.89017 3.47696C8.81984 3.40663 8.72446 3.36713 8.625 3.36713ZM6.92438 7.92075C6.77363 8.07113 6.583 8.17523 6.375 8.22075V6.75C6.375 6.65054 6.41451 6.55516 6.48484 6.48484C6.55516 6.41451 6.65054 6.375 6.75 6.375H8.22188C8.17549 6.58257 8.07151 6.77285 7.92188 6.924L6.92438 7.92075Z" fill="#20A979"/>
</svg>
