<svg width="15" height="11" viewBox="0 0 15 11" fill="none" xmlns="http://www.w3.org/2000/svg">
<path d="M7.49906 8.25672C7.49906 8.25672 7.91154 8.36978 8.11591 8.42539V3.18083C7.90842 3.135 7.60843 3.06656 7.36844 3.00483L5.92288 4.45683L6.37098 4.88339L7.49969 3.75772V8.25672H7.49906ZM3.74922 3.05556C3.74922 3.39289 3.46923 3.66667 3.12424 3.66667C2.77926 3.66667 2.49927 3.39289 2.49927 3.05556C2.49927 2.71822 2.77926 2.44444 3.12424 2.44444C3.46923 2.44444 3.74922 2.71822 3.74922 3.05556ZM11.8739 3.66667C12.2189 3.66667 12.4989 3.94044 12.4989 4.27778C12.4989 4.61511 12.2189 4.88889 11.8739 4.88889C11.5289 4.88889 11.2489 4.61511 11.2489 4.27778C11.2489 3.94044 11.5289 3.66667 11.8739 3.66667ZM3.74922 6.72222C3.74922 7.05956 3.46923 7.33333 3.12424 7.33333C2.77926 7.33333 2.49927 7.05956 2.49927 6.72222C2.49927 6.38489 2.77926 6.11111 3.12424 6.11111C3.46923 6.11111 3.74922 6.38489 3.74922 6.72222ZM11.8739 7.33333C12.2189 7.33333 12.4989 7.60711 12.4989 7.94444C12.4989 8.28178 12.2189 8.55556 11.8739 8.55556C11.5289 8.55556 11.2489 8.28178 11.2489 7.94444C11.2489 7.60711 11.5289 7.33333 11.8739 7.33333ZM10.7664 11C9.74459 11 8.56152 10.6834 7.41782 10.3779C6.31349 10.0827 5.17166 9.77778 4.23357 9.77778C2.36553 9.77778 0.457481 10.5893 0.438107 10.5973L0 10.7861V2.32344C0 1.72822 0.333736 1.18983 0.871214 0.9185C1.70243 0.499278 2.9605 0 4.2342 0C5.26291 0 6.28224 0.318389 7.26782 0.625167C8.25216 0.931944 9.18149 1.22222 10.1133 1.22222C11.127 1.22222 11.9201 0.992445 12.557 0.807278C12.7082 0.763278 12.8495 0.722333 12.9795 0.688722C13.4626 0.564055 13.9682 0.663055 14.3657 0.9625C14.7688 1.26561 15 1.72456 15 2.222V10.0228L14.8163 10.1041C14.7338 10.1408 12.7713 11 10.7664 11ZM4.23357 9.16667C5.25541 9.16667 6.43848 9.48322 7.58218 9.78878C8.68651 10.0839 9.82834 10.3889 10.7664 10.3889C12.2957 10.3889 13.8519 9.82972 14.3738 9.62317V2.222C14.3738 1.91644 14.2313 1.6335 13.9838 1.44711C13.7407 1.26439 13.4326 1.20389 13.1382 1.27967C13.0138 1.31206 12.8788 1.35117 12.7338 1.39333C12.0939 1.57911 11.217 1.83333 10.1127 1.83333C9.084 1.83333 8.06404 1.51494 7.07783 1.20756C6.09412 0.900778 5.16478 0.611111 4.23357 0.611111C3.0855 0.611111 1.92742 1.07372 1.15745 1.46178C0.828715 1.62739 0.624349 1.958 0.624349 2.32344V9.86761C1.32619 9.61339 2.76988 9.16667 4.23357 9.16667Z" fill="black"/>
</svg>
