<svg width="12" height="12" viewBox="0 0 12 12" fill="none" xmlns="http://www.w3.org/2000/svg">
<path d="M11.5 4.4895C11.3674 4.4895 11.2402 4.54218 11.1464 4.63595C11.0527 4.72972 11 4.85689 11 4.9895V7.5H9C8.60218 7.5 8.22064 7.65804 7.93934 7.93934C7.65804 8.22064 7.5 8.60218 7.5 9V11H2.5C2.10218 11 1.72064 10.842 1.43934 10.5607C1.15804 10.2794 1 9.89783 1 9.5V2.5C1 2.10218 1.15804 1.72064 1.43934 1.43934C1.72064 1.15804 2.10218 1 2.5 1H7.021C7.15361 1 7.28079 0.947322 7.37455 0.853554C7.46832 0.759785 7.521 0.632608 7.521 0.5C7.521 0.367392 7.46832 0.240215 7.37455 0.146447C7.28079 0.0526784 7.15361 0 7.021 0L2.5 0C1.8372 0.000793929 1.20178 0.264441 0.73311 0.73311C0.264441 1.20178 0.000793929 1.8372 0 2.5L0 9.5C0.000793929 10.1628 0.264441 10.7982 0.73311 11.2669C1.20178 11.7356 1.8372 11.9992 2.5 12H8.1715C8.49996 12.0009 8.82534 11.9367 9.12882 11.8111C9.43229 11.6854 9.70784 11.5008 9.9395 11.268L11.2675 9.939C11.5004 9.70744 11.685 9.43199 11.8108 9.1286C11.9365 8.82522 12.0008 8.49991 12 8.1715V4.9895C12 4.85689 11.9473 4.72972 11.8536 4.63595C11.7598 4.54218 11.6326 4.4895 11.5 4.4895ZM9.2325 10.561C9.03151 10.7615 8.77734 10.9003 8.5 10.961V9C8.5 8.86739 8.55268 8.74022 8.64645 8.64645C8.74022 8.55268 8.86739 8.5 9 8.5H10.9625C10.9006 8.77676 10.762 9.03047 10.5625 9.232L9.2325 10.561Z" fill="#20A979"/>
</svg>
