<svg width="17" height="18" viewBox="0 0 17 18" fill="none" xmlns="http://www.w3.org/2000/svg">
<path d="M11.9361 0C11.2326 0.0116235 10.5445 0.220228 9.94115 0.604749C9.33783 0.989269 8.84071 1.53609 8.5 2.18999C8.15929 1.53609 7.66217 0.989269 7.05886 0.604749C6.45554 0.220228 5.76738 0.0116235 5.06389 0C3.94243 0.0517571 2.88583 0.572883 2.12494 1.44953C1.36404 2.32617 0.960697 3.48707 1.00302 4.67861C1.00302 7.69614 3.99307 10.9917 6.50081 13.2262C7.06072 13.726 7.76864 14 8.5 14C9.23136 14 9.93928 13.726 10.4992 13.2262C13.0069 10.9917 15.997 7.69614 15.997 4.67861C16.0393 3.48707 15.636 2.32617 14.8751 1.44953C14.1142 0.572883 13.0576 0.0517571 11.9361 0Z" fill="#20A979"/>
<rect y="17" width="17" height="1" rx="0.5" fill="#20A979"/>
</svg>
