<svg width="15" height="14" viewBox="0 0 15 14" fill="none" xmlns="http://www.w3.org/2000/svg">
<path d="M10.9361 0C10.2326 0.0116235 9.54446 0.220228 8.94115 0.604749C8.33783 0.989269 7.84071 1.53609 7.5 2.18999C7.15929 1.53609 6.66217 0.989269 6.05885 0.604749C5.45554 0.220228 4.76738 0.0116235 4.06389 0C2.94243 0.0517571 1.88583 0.572883 1.12494 1.44953C0.364041 2.32617 -0.0393025 3.48707 0.00302447 4.67861C0.00302447 7.69614 2.99307 10.9917 5.50081 13.2262C6.06072 13.726 6.76864 14 7.5 14C8.23136 14 8.93928 13.726 9.49919 13.2262C12.0069 10.9917 14.997 7.69614 14.997 4.67861C15.0393 3.48707 14.636 2.32617 13.8751 1.44953C13.1142 0.572883 12.0576 0.0517571 10.9361 0ZM8.69639 12.2108C8.36152 12.5104 7.93779 12.6746 7.5 12.6746C7.06221 12.6746 6.63848 12.5104 6.30361 12.2108C3.09365 9.34991 1.25252 6.60513 1.25252 4.67861C1.20981 3.83892 1.48141 3.01537 2.00807 2.38755C2.53473 1.75973 3.27373 1.3786 4.06389 1.32726C4.85405 1.3786 5.59304 1.75973 6.1197 2.38755C6.64637 3.01537 6.91796 3.83892 6.87525 4.67861C6.87525 4.85461 6.94107 5.02341 7.05824 5.14786C7.1754 5.27232 7.33431 5.34224 7.5 5.34224C7.66569 5.34224 7.8246 5.27232 7.94176 5.14786C8.05893 5.02341 8.12475 4.85461 8.12475 4.67861C8.08204 3.83892 8.35363 3.01537 8.8803 2.38755C9.40696 1.75973 10.146 1.3786 10.9361 1.32726C11.7263 1.3786 12.4653 1.75973 12.9919 2.38755C13.5186 3.01537 13.7902 3.83892 13.7475 4.67861C13.7475 6.60513 11.9063 9.34991 8.69639 12.2082V12.2108Z" fill="#8F8F8F"/>
</svg>
