<svg width="14" height="14" viewBox="0 0 14 14" fill="none" xmlns="http://www.w3.org/2000/svg">
<path fill-rule="evenodd" clip-rule="evenodd" d="M7.78458 1.47359C7.56986 1.27804 7.29013 1.16969 7 1.16969C6.70987 1.16969 6.43014 1.27804 6.21542 1.47359L1.54875 5.72565C1.42842 5.83523 1.33228 5.9688 1.26648 6.11781C1.20068 6.26682 1.16668 6.42796 1.16667 6.59091V11.6615C1.16667 11.9716 1.28958 12.269 1.50838 12.4883C1.72717 12.7075 2.02391 12.8307 2.33333 12.8307H4.66667V9.32291C4.66667 8.70269 4.9125 8.10787 5.35008 7.66931C5.78767 7.23075 6.38116 6.98437 7 6.98437C7.61884 6.98437 8.21233 7.23075 8.64991 7.66931C9.0875 8.10787 9.33333 8.70269 9.33333 9.32291V12.8307H11.6667C11.9761 12.8307 12.2728 12.7075 12.4916 12.4883C12.7104 12.269 12.8333 11.9716 12.8333 11.6615V6.59091C12.8333 6.42796 12.7993 6.26682 12.7335 6.11781C12.6677 5.9688 12.5716 5.83523 12.4512 5.72565L7.78458 1.47359ZM5.43025 0.608326C5.85977 0.216896 6.41946 0 7 0C7.58054 0 8.14023 0.216896 8.56975 0.608326L13.2364 4.86038C13.477 5.0796 13.6691 5.34678 13.8006 5.64479C13.9321 5.9428 14 6.26506 14 6.59091V11.6615C14 12.2817 13.7542 12.8765 13.3166 13.3151C12.879 13.7536 12.2855 14 11.6667 14H9.33333C9.02391 14 8.72717 13.8768 8.50838 13.6575C8.28958 13.4382 8.16667 13.1408 8.16667 12.8307V9.32291C8.16667 9.0128 8.04375 8.71539 7.82496 8.49611C7.60616 8.27683 7.30942 8.15364 7 8.15364C6.69058 8.15364 6.39383 8.27683 6.17504 8.49611C5.95625 8.71539 5.83333 9.0128 5.83333 9.32291V12.8307C5.83333 13.1408 5.71042 13.4382 5.49162 13.6575C5.27283 13.8768 4.97609 14 4.66667 14H2.33333C1.71449 14 1.121 13.7536 0.683417 13.3151C0.245833 12.8765 0 12.2817 0 11.6615V6.59091C3.15822e-05 6.26501 0.0680262 5.94273 0.199623 5.64471C0.331219 5.3467 0.523512 5.07955 0.764167 4.86038L5.43083 0.60891L5.43025 0.608326Z" fill="#AEAEAE"/>
</svg>
