<svg width="17" height="19" viewBox="0 0 17 19" fill="none" xmlns="http://www.w3.org/2000/svg">
<path d="M10.0352 0.59483C9.61508 0.212076 9.06773 0 8.5 0C7.93227 0 7.38492 0.212076 6.96478 0.59483L1.74739 5.34883C1.512 5.56328 1.32392 5.82468 1.19521 6.11626C1.0665 6.40784 1.00001 6.72317 1 7.04202V12.7119C1 13.3187 1.24049 13.9007 1.66856 14.3298C2.09663 14.7589 2.67722 15 3.28261 15H5.8913C6.15076 15 6.39958 14.8967 6.58304 14.7128C6.7665 14.5289 6.86957 14.2795 6.86957 14.0194V10.0969C6.86957 9.66349 7.04134 9.24779 7.34711 8.94129C7.65287 8.63479 8.06758 8.4626 8.5 8.4626C8.93242 8.4626 9.34713 8.63479 9.65289 8.94129C9.95866 9.24779 10.1304 9.66349 10.1304 10.0969V14.0194C10.1304 14.2795 10.2335 14.5289 10.417 14.7128C10.6004 14.8967 10.8492 15 11.1087 15H13.7174C14.3228 15 14.9034 14.7589 15.3314 14.3298C15.7595 13.9007 16 13.3187 16 12.7119V7.04202C16 6.72317 15.9335 6.40784 15.8048 6.11626C15.6761 5.82468 15.488 5.56328 15.2526 5.34883L10.0352 0.59483Z" fill="#20A979"/>
<rect y="18" width="17" height="1" rx="0.5" fill="#20A979"/>
</svg>
