<svg width="12" height="14" viewBox="0 0 12 14" fill="none" xmlns="http://www.w3.org/2000/svg">
<path fill-rule="evenodd" clip-rule="evenodd" d="M8.8242 8.44053C9.64359 7.86083 10.2533 7.04386 10.5659 6.10665C10.8785 5.16944 10.878 4.16008 10.5645 3.22314C10.251 2.28621 9.6406 1.46978 8.82066 0.890802C8.00073 0.311823 7.01336 0 6 0C4.98664 0 3.99927 0.311823 3.17934 0.890802C2.3594 1.46978 1.74897 2.28621 1.43547 3.22314C1.12197 4.16008 1.1215 5.16944 1.43412 6.10665C1.74674 7.04386 2.35641 7.86083 3.1758 8.44053C2.24583 8.76594 1.44179 9.36243 0.873412 10.1486C0.305038 10.9348 2.4675e-05 11.8723 0 12.8333V13.4166C0 13.5714 0.0632142 13.7197 0.175736 13.8291C0.288258 13.9385 0.44087 14 0.6 14C0.75913 14 0.911742 13.9385 1.02426 13.8291C1.13679 13.7197 1.2 13.5714 1.2 13.4166V12.8333C1.2 11.905 1.57928 11.0147 2.25442 10.3583C2.92955 9.70185 3.84522 9.33308 4.8 9.33308H7.2C8.15478 9.33308 9.07045 9.70185 9.74559 10.3583C10.4207 11.0147 10.8 11.905 10.8 12.8333V13.4166C10.8 13.5714 10.8632 13.7197 10.9757 13.8291C11.0883 13.9385 11.2409 14 11.4 14C11.5591 14 11.7117 13.9385 11.8243 13.8291C11.9368 13.7197 12 13.5714 12 13.4166V12.8333C12 11.8723 11.695 10.9348 11.1266 10.1486C10.5582 9.36243 9.75417 8.76594 8.8242 8.44053ZM2.4 4.66616C2.4 3.73786 2.77928 2.84757 3.45442 2.19116C4.12955 1.53474 5.04522 1.16597 6 1.16597C6.95478 1.16597 7.87045 1.53474 8.54559 2.19116C9.22072 2.84757 9.6 3.73786 9.6 4.66616C9.6 5.59447 9.22072 6.48476 8.54559 7.14117C7.87045 7.79758 6.95478 8.16635 6 8.16635C5.04522 8.16635 4.12955 7.79758 3.45442 7.14117C2.77928 6.48476 2.4 5.59447 2.4 4.66616Z" fill="#8F8F8F"/>
</svg>
