<svg width="17" height="20" viewBox="0 0 17 20" fill="none" xmlns="http://www.w3.org/2000/svg">
<path d="M3.11208 12.0051H14.1373C14.4766 12.0051 14.8109 11.9277 15.112 11.7795C15.413 11.6312 15.6719 11.4165 15.8668 11.1534C16.0617 10.8903 16.1868 10.5867 16.2315 10.2681C16.2763 9.94957 16.2394 9.6255 16.1239 9.32332L14.1155 4.0644C13.7725 2.89571 13.0347 1.86559 12.015 1.1316C10.9953 0.397603 9.74984 0.000141446 8.46906 6.78497e-10C7.13578 -1.97366e-05 5.84236 0.430576 4.80235 1.22069C3.76234 2.01081 3.03792 3.1132 2.74871 4.34586L1.0938 9.41469C0.996366 9.71395 0.974462 10.0307 1.02985 10.3394C1.08524 10.6482 1.21638 10.9403 1.41271 11.1923C1.60904 11.4443 1.86508 11.6491 2.16024 11.7903C2.4554 11.9315 2.78142 12.005 3.11208 12.0051Z" fill="#20A979"/>
<path d="M5.24719 13.3389C5.40882 14.0927 5.84066 14.7705 6.46953 15.2573C7.0984 15.7441 7.88564 16.01 8.69785 16.01C9.51006 16.01 10.2973 15.7441 10.9262 15.2573C11.555 14.7705 11.9869 14.0927 12.1485 13.3389H5.24719Z" fill="#20A979"/>
<rect y="19" width="17" height="1" rx="0.5" fill="#20A979"/>
</svg>
