<svg width="15" height="15" viewBox="0 0 15 15" fill="none" xmlns="http://www.w3.org/2000/svg">
<g clip-path="url(#clip0_94_697)">
<path d="M14.5369 10.1246L12.9119 4.26774C12.5649 3.01488 11.8088 1.91408 10.7639 1.14055C9.71908 0.367015 8.44551 -0.0348032 7.14593 -0.000953417C5.84634 0.0328964 4.59542 0.500469 3.59225 1.32735C2.58908 2.15422 1.89131 3.29289 1.61001 4.56212L0.353133 10.2184C0.292316 10.4924 0.2938 10.7766 0.357474 11.05C0.421149 11.3233 0.545389 11.5789 0.72103 11.7979C0.89667 12.0168 1.11923 12.1936 1.37229 12.315C1.62534 12.4365 1.90244 12.4996 2.18313 12.4996H4.43751C4.58096 13.2061 4.96421 13.8412 5.52235 14.2974C6.08048 14.7535 6.77916 15.0028 7.50001 15.0028C8.22086 15.0028 8.91954 14.7535 9.47767 14.2974C10.0358 13.8412 10.4191 13.2061 10.5625 12.4996H12.7313C13.0201 12.4995 13.305 12.4326 13.5637 12.3043C13.8224 12.1759 14.048 11.9895 14.2228 11.7596C14.3977 11.5298 14.517 11.2626 14.5716 10.979C14.6262 10.6954 14.6139 10.403 14.5369 10.1246ZM7.50001 13.7496C7.1136 13.748 6.73711 13.6271 6.42207 13.4033C6.10703 13.1796 5.86881 12.8639 5.74001 12.4996H9.26001C9.13121 12.8639 8.89299 13.1796 8.57794 13.4033C8.2629 13.6271 7.88642 13.748 7.50001 13.7496ZM13.2281 11.0027C13.1698 11.08 13.0942 11.1426 13.0074 11.1855C12.9206 11.2284 12.825 11.2503 12.7281 11.2496H2.18313C2.08955 11.2496 1.99716 11.2286 1.91279 11.1881C1.82842 11.1476 1.75422 11.0886 1.69567 11.0156C1.63712 10.9426 1.59571 10.8574 1.5745 10.7663C1.55329 10.6751 1.55282 10.5804 1.57313 10.489L2.83001 4.83274C3.05148 3.83662 3.59958 2.94312 4.38717 2.29427C5.17476 1.64543 6.15665 1.27848 7.17674 1.25175C8.19684 1.22503 9.19659 1.54007 10.0171 2.14679C10.8376 2.75351 11.4317 3.61709 11.705 4.60024L13.33 10.4571C13.3565 10.5497 13.3611 10.6473 13.3435 10.742C13.3258 10.8367 13.2863 10.9259 13.2281 11.0027Z" fill="#18DD98"/>
</g>
<defs>
<clipPath id="clip0_94_697">
<rect width="15" height="15" fill="white"/>
</clipPath>
</defs>
</svg>
