<svg width="17" height="20" viewBox="0 0 17 20" fill="none" xmlns="http://www.w3.org/2000/svg">
<path d="M8.565 7.74251e-08C7.43623 -0.000193643 6.33744 0.36314 5.43145 1.03616C4.52546 1.70917 3.86049 2.65606 3.53508 3.73649C3.20967 4.81692 3.24114 5.9734 3.62482 7.03455C4.00851 8.09571 4.72399 9.00505 5.66524 9.62784C4.58097 10.0729 3.65357 10.8303 3.00093 11.8035C2.34829 12.7768 1.99989 13.9221 2 15.0938C2 15.2678 2.06917 15.4347 2.19228 15.5578C2.3154 15.6809 2.48239 15.75 2.6565 15.75H14.4735C14.6476 15.75 14.8146 15.6809 14.9377 15.5578C15.0608 15.4347 15.13 15.2678 15.13 15.0938C15.1301 13.9221 14.7817 12.7768 14.1291 11.8035C13.4764 10.8303 12.549 10.0729 11.4648 9.62784C12.406 9.00505 13.1215 8.09571 13.5052 7.03455C13.8889 5.9734 13.9203 4.81692 13.5949 3.73649C13.2695 2.65606 12.6045 1.70917 11.6986 1.03616C10.7926 0.36314 9.69377 -0.000193643 8.565 7.74251e-08Z" fill="#20A979"/>
<rect y="19" width="17" height="1" rx="0.5" fill="#20A979"/>
</svg>
