<svg width="16" height="16" viewBox="0 0 16 16" fill="none" xmlns="http://www.w3.org/2000/svg">
<path d="M8 0.1875C6.45484 0.1875 4.94437 0.645695 3.65961 1.50414C2.37485 2.36259 1.3735 3.58274 0.782195 5.01029C0.190885 6.43783 0.0361715 8.00867 0.337619 9.52414C0.639066 11.0396 1.38313 12.4317 2.47573 13.5243C3.56833 14.6169 4.96038 15.3609 6.47586 15.6624C7.99134 15.9638 9.56217 15.8091 10.9897 15.2178C12.4173 14.6265 13.6374 13.6252 14.4959 12.3404C15.3543 11.0556 15.8125 9.54517 15.8125 8C15.8102 5.92869 14.9864 3.94288 13.5218 2.47824C12.0571 1.01361 10.0713 0.189775 8 0.1875ZM3.38047 13.5016C3.84415 12.6851 4.51594 12.0061 5.32741 11.5337C6.13889 11.0614 7.06106 10.8125 8 10.8125C8.93895 10.8125 9.86112 11.0614 10.6726 11.5337C11.4841 12.0061 12.1559 12.6851 12.6195 13.5016C11.3265 14.5904 9.69041 15.1875 8 15.1875C6.30959 15.1875 4.67351 14.5904 3.38047 13.5016ZM13.0914 13.068C12.3151 11.77 11.0705 10.8193 9.61407 10.4117C10.2912 10.0516 10.8285 9.47536 11.1404 8.77468C11.4523 8.07401 11.5209 7.28915 11.3354 6.54498C11.1498 5.8008 10.7207 5.14007 10.1163 4.66789C9.5119 4.19571 8.76697 3.93922 8 3.93922C7.23304 3.93922 6.48811 4.19571 5.88372 4.66789C5.27934 5.14007 4.85022 5.8008 4.66465 6.54498C4.47907 7.28915 4.5477 8.07401 4.8596 8.77468C5.17151 9.47536 5.70878 10.0516 6.38594 10.4117C4.92953 10.8193 3.68493 11.77 2.9086 13.068C1.90598 12.0618 1.22399 10.781 0.948736 9.38749C0.673486 7.99396 0.817321 6.55011 1.36208 5.23826C1.90684 3.92641 2.82809 2.8054 4.00951 2.01676C5.19093 1.22812 6.57954 0.807231 8 0.807231C9.42046 0.807231 10.8091 1.22812 11.9905 2.01676C13.1719 2.8054 14.0932 3.92641 14.6379 5.23826C15.1827 6.55011 15.3265 7.99396 15.0513 9.38749C14.776 10.781 14.094 12.0618 13.0914 13.068ZM8 10.1875C7.44374 10.1875 6.89998 10.0225 6.43746 9.71351C5.97495 9.40447 5.61446 8.96521 5.40159 8.4513C5.18872 7.93738 5.13302 7.37188 5.24154 6.82631C5.35007 6.28074 5.61793 5.7796 6.01127 5.38626C6.4046 4.99293 6.90574 4.72506 7.45131 4.61654C7.99688 4.50802 8.56238 4.56372 9.0763 4.77659C9.59022 4.98946 10.0295 5.34995 10.3385 5.81246C10.6476 6.27497 10.8125 6.81874 10.8125 7.375C10.8125 8.12092 10.5162 8.83629 9.98874 9.36374C9.4613 9.89118 8.74592 10.1875 8 10.1875Z" fill="white"/>
</svg>
