<svg width="15" height="16" viewBox="0 0 15 16" fill="none" xmlns="http://www.w3.org/2000/svg">
<path d="M14.7263 13.7088L11.8228 10.7381C13.9953 7.76897 13.4029 3.56081 10.4997 1.33897C7.59648 -0.882864 3.48176 -0.277041 1.30925 2.69211C-0.863263 5.66126 -0.27089 9.86941 2.63234 12.0913C4.96445 13.876 8.16756 13.876 10.4997 12.0913L13.4044 15.0619C13.7694 15.4352 14.3612 15.4352 14.7262 15.0619C15.0913 14.6886 15.0913 14.0833 14.7262 13.71L14.7263 13.7088ZM6.59023 11.5179C4.00998 11.5179 1.91829 9.37871 1.91829 6.73987C1.91829 4.10103 4.00998 1.96185 6.59023 1.96185C9.17048 1.96185 11.2622 4.10103 11.2622 6.73987C11.2594 9.37752 9.16934 11.5151 6.59023 11.5179Z" fill="#18DD98"/>
</svg>
