<svg width="8" height="8" viewBox="0 0 8 8" fill="none" xmlns="http://www.w3.org/2000/svg">
<path d="M4 8C1.79433 8 0 6.20567 0 4C0 1.79433 1.79433 0 4 0C6.20567 0 8 1.79433 8 4C8 6.20567 6.20567 8 4 8ZM4 0.333333C1.97833 0.333333 0.333333 1.97833 0.333333 4C0.333333 6.02167 1.97833 7.66667 4 7.66667C6.02167 7.66667 7.66667 6.02167 7.66667 4C7.66667 1.97833 6.02167 0.333333 4 0.333333ZM4.93333 5.63333C5.007 5.578 5.022 5.47367 4.967 5.4L4.00033 4.111V1.83333C4.00033 1.74133 3.92567 1.66667 3.83367 1.66667C3.74167 1.66667 3.667 1.74133 3.667 1.83333V4.16667C3.667 4.20267 3.67867 4.23767 3.70033 4.26667L4.70033 5.6C4.73333 5.64367 4.78333 5.66667 4.83367 5.66667C4.86833 5.66667 4.90333 5.65567 4.93333 5.63333Z" fill="#23343E"/>
</svg>
