<svg width="14" height="11" viewBox="0 0 14 11" fill="none" xmlns="http://www.w3.org/2000/svg">
<path d="M11.375 11H2.625C1.17775 11 0 9.88955 0 8.525V2.475C0 1.11045 1.17775 0 2.625 0H11.375C12.8222 0 14 1.11045 14 2.475V8.525C14 9.88955 12.8222 11 11.375 11ZM2.625 0.55C1.49917 0.55 0.583333 1.4135 0.583333 2.475V8.525C0.583333 9.5865 1.49917 10.45 2.625 10.45H11.375C12.5008 10.45 13.4167 9.5865 13.4167 8.525V2.475C13.4167 1.4135 12.5008 0.55 11.375 0.55H2.625ZM10.7917 6.05H7.875C7.39258 6.05 7 5.67985 7 5.225V3.575C7 3.12015 7.39258 2.75 7.875 2.75H10.7917C11.2741 2.75 11.6667 3.12015 11.6667 3.575V5.225C11.6667 5.67985 11.2741 6.05 10.7917 6.05ZM7.875 3.3C7.714 3.3 7.58333 3.4232 7.58333 3.575V5.225C7.58333 5.3768 7.714 5.5 7.875 5.5H10.7917C10.9527 5.5 11.0833 5.3768 11.0833 5.225V3.575C11.0833 3.4232 10.9527 3.3 10.7917 3.3H7.875ZM5.83333 5.775C5.83333 5.6232 5.70267 5.5 5.54167 5.5H2.625C2.464 5.5 2.33333 5.6232 2.33333 5.775C2.33333 5.9268 2.464 6.05 2.625 6.05H5.54167C5.70267 6.05 5.83333 5.9268 5.83333 5.775ZM11.6667 7.975C11.6667 7.8232 11.536 7.7 11.375 7.7H2.625C2.464 7.7 2.33333 7.8232 2.33333 7.975C2.33333 8.1268 2.464 8.25 2.625 8.25H11.375C11.536 8.25 11.6667 8.1268 11.6667 7.975Z" fill="black"/>
</svg>
