<svg width="5" height="10" viewBox="0 0 5 10" fill="none" xmlns="http://www.w3.org/2000/svg">
<path d="M5 2.5C5 1.12125 3.87875 0 2.5 0C1.12125 0 0 1.12125 0 2.5C0 3.80833 1.01042 4.885 2.29167 4.99125V9.79167C2.29167 9.90667 2.385 10 2.5 10C2.615 10 2.70833 9.90667 2.70833 9.79167V4.99125C3.98958 4.885 5 3.80833 5 2.5ZM2.5 4.58333C1.35125 4.58333 0.416667 3.64875 0.416667 2.5C0.416667 1.35125 1.35125 0.416667 2.5 0.416667C3.64875 0.416667 4.58333 1.35125 4.58333 2.5C4.58333 3.64875 3.64875 4.58333 2.5 4.58333Z" fill="#23343E"/>
</svg>
