<svg width="109" height="23" viewBox="0 0 109 23" fill="none" xmlns="http://www.w3.org/2000/svg">
<path d="M41.1026 1.35915H30.0228C29.891 1.35402 29.7596 1.37866 29.6368 1.43154C29.5141 1.48441 29.4027 1.56438 29.3095 1.66645C29.2163 1.76853 29.1434 1.89051 29.0952 2.02477C29.0471 2.15904 29.0249 2.30271 29.0298 2.44681C29.0245 2.59089 29.0466 2.73462 29.0946 2.86892C29.1426 3.00323 29.2156 3.12521 29.3089 3.22718C29.4022 3.32914 29.5138 3.40889 29.6366 3.46138C29.7595 3.51387 29.891 3.53798 30.0228 3.53219H34.4945V17.8637C34.4945 18.1758 34.6079 18.4752 34.8098 18.6958C35.0117 18.9165 35.2855 19.0405 35.5711 19.0405C35.8566 19.0405 36.1304 18.9165 36.3324 18.6958C36.5343 18.4752 36.6477 18.1758 36.6477 17.8637V3.53219H41.1005C41.2325 3.53831 41.3642 3.51444 41.4873 3.46209C41.6105 3.40974 41.7223 3.33005 41.8158 3.22805C41.9094 3.12605 41.9825 3.00396 42.0306 2.86949C42.0788 2.73502 42.1009 2.59109 42.0956 2.44681C42.1006 2.30251 42.0783 2.15864 42.03 2.02422C41.9818 1.88979 41.9086 1.7677 41.8152 1.66559C41.7218 1.56348 41.6101 1.48356 41.4871 1.43083C41.3641 1.3781 41.2325 1.35369 41.1005 1.35915H41.1026Z" fill="white"/>
<path d="M44.2926 6.65757C44.154 6.65277 44.0158 6.67818 43.8863 6.73232C43.7567 6.78646 43.6383 6.86824 43.5379 6.97291C43.437 7.08203 43.3581 7.213 43.3063 7.35742C43.2545 7.50184 43.2308 7.65651 43.2369 7.8115V17.8861C43.2415 18.1146 43.3068 18.3368 43.4249 18.5255C43.5429 18.7142 43.7086 18.8613 43.9017 18.949C44.0949 19.0366 44.3072 19.061 44.5128 19.0192C44.7184 18.9773 44.9085 18.871 45.0598 18.7133C45.1562 18.6035 45.2316 18.4738 45.2815 18.3317C45.3314 18.1897 45.3548 18.0382 45.3504 17.8861V7.8115C45.3593 7.65724 45.3381 7.50267 45.288 7.3581C45.238 7.21353 45.1603 7.08227 45.0602 6.97308C44.9601 6.86389 44.8399 6.77928 44.7075 6.72487C44.5752 6.67047 44.4337 6.64753 44.2926 6.65757Z" fill="white"/>
<path d="M44.2926 1.65344C44.1132 1.65097 43.9353 1.68885 43.7699 1.76472C43.6044 1.84058 43.4551 1.95281 43.331 2.09444C43.2027 2.23169 43.1007 2.39556 43.0311 2.57645C42.9615 2.75734 42.9257 2.9516 42.9257 3.14783C42.9257 3.34406 42.9615 3.53832 43.0311 3.71921C43.1007 3.9001 43.2027 4.06397 43.331 4.20122C43.4567 4.34084 43.6065 4.45174 43.7718 4.52743C43.9371 4.60312 44.1145 4.64211 44.2937 4.64211C44.4729 4.64211 44.6503 4.60312 44.8156 4.52743C44.9808 4.45174 45.1307 4.34084 45.2564 4.20122C45.3858 4.065 45.4884 3.90128 45.5577 3.72012C45.6271 3.53897 45.6619 3.34421 45.6598 3.14783C45.6619 2.95145 45.6271 2.75669 45.5577 2.57554C45.4884 2.39438 45.3858 2.23066 45.2564 2.09444C45.1319 1.95275 44.9821 1.8405 44.8164 1.76464C44.6506 1.68878 44.4723 1.65093 44.2926 1.65344Z" fill="white"/>
<path d="M56.0372 7.34718C55.1974 6.80665 54.2352 6.53581 53.261 6.56571C52.2459 6.54389 51.2442 6.82176 50.3614 7.37003C49.5267 7.8989 48.8422 8.67 48.3838 9.59791C47.8933 10.5999 47.6457 11.7224 47.6647 12.8586C47.6445 13.9965 47.9059 15.1191 48.4214 16.1079C48.9181 17.0437 49.6416 17.8115 50.512 18.3266C51.2842 18.7712 52.1319 19.0372 53.0023 19.108C53.8727 19.1787 54.7471 19.0528 55.571 18.7379C56.2024 18.5185 56.7944 18.1815 57.3208 17.7417C57.4269 17.6655 57.5132 17.5607 57.5715 17.4374C57.6297 17.3142 57.6578 17.1765 57.6532 17.0379C57.6395 16.8942 57.5995 16.7551 57.5356 16.6286C57.4716 16.5022 57.3851 16.3912 57.2811 16.3021C57.1062 16.1416 56.8819 16.0599 56.6539 16.0736C56.4105 16.0816 56.1754 16.1718 55.9808 16.3318C55.6485 16.5914 55.2819 16.794 54.8937 16.9328C54.4722 17.1011 54.0275 17.1892 53.5788 17.1933C52.8485 17.208 52.1275 17.0126 51.4882 16.6266C50.9884 16.3206 50.5592 15.894 50.2331 15.3792C49.9071 14.8644 49.6928 14.2751 49.6068 13.6561H57.4818C57.6072 13.661 57.7323 13.6384 57.8497 13.5898C57.9671 13.5411 58.0744 13.4673 58.1654 13.3727C58.2531 13.281 58.3223 13.1701 58.3684 13.0473C58.4145 12.9245 58.4365 12.7925 58.4329 12.6598C58.4532 11.57 58.2444 10.4896 57.8225 9.50194C57.4314 8.60952 56.811 7.86082 56.0372 7.34718ZM49.6193 11.8418C49.6845 11.4226 49.802 11.0151 49.9684 10.6307C50.2461 9.9895 50.6884 9.45042 51.2415 9.07922C51.8527 8.687 52.5525 8.49062 53.261 8.51253C53.863 8.4843 54.459 8.6535 54.9723 8.99839C55.4857 9.34327 55.8929 9.84809 56.1417 10.4479C56.3306 10.8884 56.4541 11.3589 56.5076 11.8418H49.6193Z" fill="white"/>
<path d="M68.2688 7.20998C67.4806 6.75641 66.6007 6.52696 65.71 6.54276C64.8508 6.52912 64.0026 6.7548 63.2453 7.19855C62.8622 7.43174 62.5105 7.72163 62.2 8.06V7.81093C62.1955 7.58367 62.1311 7.36266 62.0143 7.17453C61.8976 6.98639 61.7336 6.83915 61.5421 6.75054C61.3505 6.66193 61.1397 6.63572 60.9348 6.67507C60.73 6.71442 60.5399 6.81765 60.3875 6.97234C60.2866 7.08146 60.2078 7.21243 60.1559 7.35685C60.1041 7.50127 60.0804 7.65594 60.0865 7.81093V17.9084C60.0925 18.1349 60.1581 18.3547 60.2755 18.5415C60.3928 18.7282 60.5569 18.8741 60.7482 18.9616C60.9394 19.0491 61.1496 19.0746 61.3537 19.0349C61.5578 18.9952 61.7471 18.8921 61.899 18.7378C61.9954 18.6281 62.0707 18.4983 62.1206 18.3563C62.1705 18.2142 62.194 18.0627 62.1896 17.9107V11.5241C62.1824 10.9939 62.3287 10.4748 62.6077 10.0411C62.8955 9.60053 63.2801 9.24615 63.7261 9.01056C64.216 8.74925 64.7552 8.61774 65.3003 8.62668C65.883 8.61443 66.4604 8.74973 66.9873 9.02199C67.4798 9.28828 67.8877 9.71022 68.158 10.233C68.4696 10.8813 68.6182 11.6083 68.5887 12.3398V17.9084C68.5823 18.0644 68.6049 18.2202 68.6552 18.3664C68.7054 18.5126 68.7822 18.6461 68.881 18.759C68.9798 18.8718 69.0984 18.9616 69.2298 19.023C69.3612 19.0843 69.5025 19.116 69.6454 19.116C69.7883 19.116 69.9297 19.0843 70.0611 19.023C70.1924 18.9616 70.3111 18.8718 70.4098 18.759C70.5086 18.6461 70.5854 18.5126 70.6357 18.3664C70.6859 18.2202 70.7085 18.0644 70.7022 17.9084V12.3398C70.7347 11.2392 70.5103 10.1477 70.0499 9.16823C69.6434 8.33979 69.0243 7.65918 68.2688 7.20998Z" fill="white"/>
<path d="M82.9424 1.3589C82.8037 1.3544 82.6654 1.38017 82.5359 1.4347C82.4063 1.48924 82.288 1.57144 82.1878 1.67652C82.0869 1.78564 82.008 1.91661 81.9561 2.06103C81.9043 2.20545 81.8807 2.36012 81.8867 2.51511V8.6275C81.4044 7.97878 80.7947 7.45707 80.1027 7.10106C79.4108 6.74505 78.6544 6.56388 77.8896 6.571C76.9298 6.55527 75.9862 6.84247 75.172 7.39817C74.3701 7.94942 73.7159 8.7228 73.2759 9.63976C72.8044 10.6263 72.5658 11.7259 72.5818 12.8388C72.567 13.9651 72.8283 15.0752 73.3386 16.0538C73.8284 16.9887 74.536 17.7653 75.3894 18.3045C76.2731 18.8627 77.2788 19.1486 78.2994 19.1317C79.2996 19.1498 80.2859 18.8736 81.155 18.3321C82.024 17.7906 82.7439 17.0037 83.2393 16.0538C83.7496 15.0752 84.0109 13.9651 83.9961 12.8388V2.51511C84.0028 2.36196 83.9799 2.20898 83.9289 2.06613C83.878 1.92327 83.8001 1.79375 83.7003 1.68598C83.6005 1.57821 83.4811 1.49461 83.3498 1.44061C83.2185 1.38662 83.0783 1.36345 82.9383 1.37261L82.9424 1.3589ZM81.4937 15.0118C81.1931 15.6407 80.7423 16.169 80.1892 16.5405C79.6177 16.903 78.9686 17.094 78.3078 17.094C77.6469 17.094 76.9978 16.903 76.4263 16.5405C75.8671 16.17 75.4094 15.642 75.1009 15.0118C74.7723 14.3444 74.6047 13.5966 74.6138 12.8388C74.6014 12.0798 74.7692 11.3303 75.1009 10.6634C75.4141 10.0431 75.8713 9.52375 76.4263 9.15762C76.9978 8.79506 77.6469 8.6041 78.3078 8.6041C78.9686 8.6041 79.6177 8.79506 80.1892 9.15762C80.7381 9.52477 81.1882 10.0443 81.4937 10.6634C81.8191 11.3325 81.9832 12.0812 81.9704 12.8388C81.9799 13.5952 81.8161 14.3423 81.4937 15.0118Z" fill="white"/>
<path d="M94.7286 7.39291C94.0776 6.97491 93.3576 6.70153 92.6098 6.58844C91.8619 6.47535 91.101 6.52478 90.3707 6.73389C89.6404 6.94301 88.9551 7.3077 88.354 7.80703C87.753 8.30635 87.248 8.9305 86.8682 9.64364C86.3579 10.6222 86.0966 11.7323 86.1114 12.8586C86.0958 13.9715 86.3343 15.071 86.8055 16.0576C87.2462 16.9735 87.9003 17.7459 88.7016 18.297C89.5211 18.8399 90.461 19.1269 91.4193 19.1269C92.3775 19.1269 93.3175 18.8399 94.137 18.297C94.6236 17.9632 95.0572 17.5449 95.4205 17.0585V17.9016C95.4142 18.0577 95.4368 18.2135 95.4871 18.3596C95.5373 18.5058 95.6141 18.6394 95.7129 18.7522C95.8116 18.8651 95.9303 18.9549 96.0617 19.0163C96.193 19.0776 96.3344 19.1092 96.4773 19.1092C96.6202 19.1092 96.7616 19.0776 96.8929 19.0163C97.0243 18.9549 97.143 18.8651 97.2417 18.7522C97.3405 18.6394 97.4173 18.5058 97.4675 18.3596C97.5178 18.2135 97.5404 18.0577 97.5341 17.9016V12.8586C97.5489 11.7323 97.2876 10.6222 96.7773 9.64364C96.2872 8.70965 95.5806 7.93333 94.7286 7.39291ZM95.0192 15.0225C94.7164 15.6468 94.2659 16.1708 93.7147 16.5398C93.1431 16.9023 92.494 17.0933 91.8332 17.0933C91.1724 17.0933 90.5233 16.9023 89.9517 16.5398C89.399 16.1699 88.946 15.6463 88.6389 15.0225C88.3094 14.3589 88.1416 13.6137 88.1518 12.8586C88.1404 12.0969 88.3081 11.3447 88.6389 10.6742C88.95 10.0491 89.4074 9.52552 89.9643 9.15693C90.5358 8.79437 91.1849 8.60341 91.8457 8.60341C92.5066 8.60341 93.1557 8.79437 93.7272 9.15693C94.278 9.52653 94.7284 10.0504 95.0317 10.6742C95.3562 11.3469 95.5201 12.0983 95.5083 12.8586C95.5151 13.6135 95.3468 14.358 95.0192 15.0225Z" fill="white"/>
<path d="M107.82 13.8238C107.493 13.3025 107.047 12.8847 106.525 12.6127C105.748 12.2018 104.922 11.9118 104.071 11.7513C103.492 11.6363 102.923 11.4657 102.372 11.2417C102.067 11.1318 101.799 10.9268 101.6 10.6522C101.464 10.4355 101.391 10.1791 101.391 9.91644C101.391 9.47924 101.6 9.14715 102.018 8.92018C102.502 8.67982 103.03 8.56411 103.561 8.582C104.03 8.57406 104.498 8.64261 104.949 8.78536C105.371 8.93495 105.754 9.19093 106.068 9.53256C106.28 9.74797 106.547 9.88953 106.833 9.93929C106.967 9.97304 107.106 9.97647 107.242 9.94936C107.377 9.92225 107.506 9.86517 107.621 9.78162C107.722 9.70703 107.806 9.60813 107.867 9.49249C107.928 9.37684 107.964 9.24752 107.972 9.1144C107.976 8.97461 107.955 8.83535 107.908 8.70498C107.862 8.57461 107.792 8.45583 107.702 8.35578C107.256 7.77014 106.68 7.31806 106.03 7.0419C105.259 6.7113 104.435 6.54981 103.607 6.56662C102.916 6.56482 102.23 6.69075 101.577 6.93908C100.965 7.16509 100.416 7.55837 99.9821 8.08158C99.5567 8.6078 99.3323 9.29235 99.355 9.99413C99.3514 10.4173 99.4342 10.836 99.5973 11.2198C99.7604 11.6036 99.9997 11.9429 100.298 12.2129C100.926 12.8222 101.938 13.2792 103.333 13.5839C104.409 13.7941 105.151 14.0652 105.56 14.3973C105.742 14.522 105.892 14.696 105.996 14.9025C106.099 15.109 106.152 15.3411 106.149 15.5764C106.139 15.8073 106.073 16.0311 105.958 16.2256C105.844 16.42 105.685 16.5783 105.497 16.6846C105.079 16.9725 104.464 17.1142 103.664 17.1142C103.07 17.1236 102.481 16.9967 101.935 16.7418C101.511 16.5625 101.127 16.2886 100.806 15.9374C100.626 15.7186 100.379 15.5782 100.112 15.5421C99.9659 15.5265 99.8186 15.5438 99.6791 15.5929C99.5395 15.642 99.4107 15.722 99.3006 15.8277C99.1885 15.916 99.0946 16.0288 99.0247 16.1591C98.9549 16.2893 98.9107 16.4341 98.8951 16.5841C98.8776 16.7344 98.8918 16.8872 98.9368 17.0306C98.9817 17.174 99.0561 17.3042 99.1543 17.4113C99.7033 17.9705 100.358 18.3916 101.071 18.6452C101.933 18.9769 102.84 19.1416 103.753 19.1319C104.595 19.1606 105.432 18.9907 106.208 18.6337C106.809 18.3509 107.326 17.8884 107.698 17.2993C108.036 16.7423 108.213 16.0871 108.206 15.4187C108.218 14.8578 108.084 14.3049 107.82 13.8238Z" fill="white"/>
<path d="M8.36282 0.784969C7.47985 0.249885 6.48313 -0.0205042 5.47372 0.00121229H1.12961C0.981497 -0.00286492 0.834137 0.02557 0.696252 0.0848348C0.558366 0.1441 0.432756 0.23299 0.326852 0.346248C0.218629 0.461227 0.133684 0.59975 0.0775084 0.752861C0.0213326 0.905971 -0.00482348 1.07026 0.000730789 1.23512V17.3033C-0.00297723 17.4662 0.0240675 17.6282 0.0801775 17.7791C0.136288 17.9301 0.220259 18.0668 0.326852 18.1807C0.431301 18.2969 0.556414 18.3885 0.694477 18.4498C0.832541 18.5111 0.980629 18.5408 1.12961 18.5372C1.28072 18.543 1.43127 18.5143 1.57166 18.4529C1.71204 18.3916 1.83917 18.2988 1.94492 18.1807C2.04816 18.0648 2.1291 17.9274 2.18296 17.7767C2.23682 17.626 2.2625 17.465 2.2585 17.3033V12.1117H5.47372C6.48089 12.1318 7.47583 11.8681 8.36282 11.3463C9.18529 10.8567 9.866 10.1254 10.3279 9.23492C10.8075 8.29172 11.0505 7.22676 11.0324 6.14788C11.0532 5.03278 10.8098 3.93076 10.3258 2.94887C9.86874 2.04173 9.18884 1.29225 8.36282 0.784969ZM8.42763 8.04672C8.14595 8.59299 7.73323 9.0449 7.23394 9.35374C6.69546 9.67785 6.0883 9.841 5.47372 9.82674H2.2585V2.28622H5.47372C6.09047 2.27291 6.69868 2.44524 7.23185 2.78435C7.73576 3.11508 8.14827 3.58886 8.42554 4.15535C8.72467 4.77179 8.87436 5.46169 8.86037 6.1593C8.87024 6.81934 8.72022 7.4705 8.42554 8.04672H8.42763Z" fill="#18DD98"/>
<path d="M19.2836 7.69059C19.4537 7.73824 19.6309 7.74679 19.8042 7.71572C19.9601 7.68303 20.1048 7.60397 20.2223 7.48722C20.3592 7.35445 20.4525 7.17625 20.4878 6.97995C20.5881 6.55342 20.4251 6.18553 19.9986 5.8763C19.5721 5.56706 18.9241 5.41472 18.0544 5.41929C17.3646 5.41057 16.6813 5.56539 16.0516 5.87307C15.4218 6.18076 14.8605 6.63401 14.4064 7.2016V6.7446C14.4177 6.58394 14.3996 6.42245 14.3533 6.26948C14.307 6.11651 14.2334 5.9751 14.1368 5.85345C14.0256 5.74751 13.8963 5.66671 13.7563 5.61573C13.6164 5.56474 13.4686 5.54458 13.3215 5.55639C13.1754 5.54647 13.029 5.56888 12.8911 5.62228C12.7531 5.67567 12.6265 5.75897 12.5187 5.86716C12.42 5.98508 12.3441 6.12359 12.2956 6.27437C12.2471 6.42516 12.227 6.5851 12.2365 6.7446V17.3516C12.2251 17.513 12.2442 17.6753 12.2928 17.8282C12.3413 17.9811 12.4183 18.1215 12.5187 18.2405C12.7397 18.4518 13.0284 18.5587 13.3215 18.5375C13.4694 18.5498 13.6181 18.5287 13.7584 18.4757C13.8986 18.4226 14.0274 18.3387 14.1368 18.229C14.3286 17.9866 14.4255 17.6714 14.4064 17.3516V10.4212C14.3968 10.0886 14.4486 9.75723 14.5589 9.44705C14.6692 9.13687 14.8356 8.85421 15.0482 8.61602C15.5305 8.11105 16.1385 7.77318 16.7959 7.64489C17.6193 7.4742 18.466 7.48975 19.2836 7.69059Z" fill="#18DD98"/>
<path d="M24.347 22.5016C25.2349 22.5016 25.9546 21.7149 25.9546 20.7445C25.9546 19.774 25.2349 18.9873 24.347 18.9873C23.4591 18.9873 22.7394 19.774 22.7394 20.7445C22.7394 21.7149 23.4591 22.5016 24.347 22.5016Z" fill="#18DD98"/>
<path d="M28.4695 22.5016C29.3574 22.5016 30.0772 21.7149 30.0772 20.7445C30.0772 19.774 29.3574 18.9873 28.4695 18.9873C27.5817 18.9873 26.8619 19.774 26.8619 20.7445C26.8619 21.7149 27.5817 22.5016 28.4695 22.5016Z" fill="#18DD98"/>
<path d="M31.442 8.51993C31.1755 8.00433 30.8425 7.53336 30.4532 7.1215C30.3946 7.04767 30.3295 6.98032 30.2588 6.92042C29.9712 6.64455 29.6588 6.40111 29.3264 6.19379C29.0862 6.04669 28.836 5.91988 28.578 5.81448C27.7418 5.43745 26.6171 5.1564 25.0555 5.26151C23.3977 5.37347 22.1768 6.26691 21.4368 6.89529C21.2265 7.09858 21.0948 7.38167 21.0685 7.68717C21.0421 7.99266 21.123 8.29768 21.2948 8.54038C21.4666 8.78308 21.7164 8.94528 21.9935 8.9941C22.2707 9.04292 22.5544 8.9747 22.7873 8.80327C23.3036 8.36455 24.1963 7.66076 25.3398 7.51681C27.1105 7.28831 28.1223 7.89384 28.7766 8.49708C29.1645 8.86658 29.4894 9.30833 29.7362 9.80182C30.0595 10.5191 30.2154 11.3128 30.1898 12.112C30.1723 12.8762 29.9601 13.62 29.5773 14.2599C29.2323 14.8639 28.759 15.368 28.1976 15.7291C27.614 16.1101 26.9433 16.3019 26.2638 16.2821C25.5849 16.3213 24.9082 16.1685 24.2992 15.8382C23.6902 15.508 23.1694 15.0116 22.7873 14.397C22.5378 13.9413 22.3385 13.4551 22.1936 12.9483C21.5351 11.0243 21.0396 10.677 19.7727 10.6815C18.924 10.6815 18.6564 10.6815 18.2634 10.6815H18.1672C17.4376 10.6815 16.8627 11.2916 17.122 12.128C17.1985 12.3635 17.3403 12.5671 17.5276 12.7105C17.715 12.8538 17.9385 12.9298 18.1672 12.9277H18.2529C18.6355 12.9277 18.8801 12.9277 19.6996 12.9277C19.9358 12.9277 20.1553 12.9894 20.3874 13.7183C20.5661 14.2755 20.7755 14.8203 21.0145 15.3498C21.5072 16.3259 22.2401 17.1316 23.1301 17.6759C24.0873 18.2282 25.1533 18.5169 26.2356 18.5169C27.3179 18.5169 28.3839 18.2282 29.3411 17.6759C30.2275 17.1303 30.9589 16.3277 31.4546 15.3567C31.9735 14.3121 32.235 13.1381 32.2134 11.9497C32.2361 10.7523 31.97 9.56941 31.442 8.51993Z" fill="#18DD98"/>
</svg>
